<svg xmlns="http://www.w3.org/2000/svg" width="362" height="159" viewBox="0 0 362 159"><defs><style>.a{fill:none;stroke:#fff;stroke-width:2px;stroke-dasharray:4 5;opacity:0.5;}.b{fill:#fa6980;}.b,.c,.d{font-size:16px;}.b,.c{font-family:Helvetica-Bold, Helvetica;font-weight:700;}.c,.d,.e{fill:#fff;}.d{font-family:Helvetica;}</style></defs><g transform="translate(-1419 -470)"><rect class="a" width="360" height="157" rx="6" transform="translate(1420 471)"/><text class="b" transform="translate(1450 504)"><tspan x="0" y="12">NEXT STORY</tspan></text><text class="c" transform="translate(1450 542)"><tspan x="0" y="0">Morbi eleifend a libero</tspan></text><text class="d" transform="translate(1450 556)"><tspan x="0" y="15">Quisque viverra interdum velit, et cursus </tspan></text><path class="e" d="M5,6a.908.908,0,0,1-.7-.3l-4-4A.967.967,0,0,1,.3.3.967.967,0,0,1,1.7.3L5,3.6,8.3.3A.967.967,0,0,1,9.7.3a.967.967,0,0,1,0,1.4l-4,4A.908.908,0,0,1,5,6Z" transform="translate(1744 511) rotate(-90)"/></g></svg>