<?xml version="1.0" encoding="utf-8"?>
<svg id="master-artboard" viewBox="0 0 1400 980" version="1.1" xmlns="http://www.w3.org/2000/svg" x="0px" y="0px" style="enable-background:new 0 0 336 235.2;" width="1400px" height="980px"><g transform="matrix(1.9140625, 0, 0, 1.9140625, 210.00001525878906, -4.927539296621973)"><g>
	<g>
		<path d="M0,0v512h512V0H0z M420.416,207.083L271.083,356.416c-4.16,4.16-9.621,6.251-15.083,6.251&#10;&#9;&#9;&#9;c-5.462,0-10.923-2.091-15.083-6.251L91.584,207.083c-8.341-8.341-8.341-21.824,0-30.165c8.341-8.341,21.824-8.341,30.165,0&#10;&#9;&#9;&#9;L256,311.168l134.251-134.251c8.341-8.341,21.824-8.341,30.165,0C428.757,185.259,428.757,198.741,420.416,207.083z" style="fill: rgb(250, 105, 128);"/>
	</g>
</g><g>
</g><g>
</g><g>
</g><g>
</g><g>
</g><g>
</g><g>
</g><g>
</g><g>
</g><g>
</g><g>
</g><g>
</g><g>
</g><g>
</g><g>
</g></g></svg>